# xmcd CD database file
#
# Track frame offsets:
#	150
#	12207
#	28765
#	41602
#	55730
#	69952
#	81302
#	96235
#	110857
#	126625
#	137332
#	150715
#	165702
#	188957
#
# Disc length: 2805 seconds
#
# Revision: 0
# Processed by: cddbd v1.5.1PL0 Copyright (c) Steve Scherf et al.
# Submitted via: CDex 1.51
#
DISCID=bf0af30e
DTITLE=Wes Montgomery - Fusion!
DYEAR=1963
DGENRE=Jazz
TTITLE0=All The Way
TTITLE1=Pretty Blue (Take 2)
TTITLE2=InThe Wee Small Hours Of The Morning
TTITLE3=Prelude To A Kiss
TTITLE4=The Girl Next Door
TTITLE5=My Romance
TTITLE6=God Bless The Child (Take 4)
TTITLE7=Tune-Up (Take 5)
TTITLE8=Somewhere
TTITLE9=Baubles,Bangles And Beads
TTITLE10=Pretty Blue (Take 1)
TTITLE11=God Bless The Child (Take 2)
TTITLE12=Tune-Up (Take 2)
TTITLE13=Tune-Up (Take 4)
EXTD=YEAR: 1963
EXTT0=
EXTT1=
EXTT2=
EXTT3=
EXTT4=
EXTT5=
EXTT6=
EXTT7=
EXTT8=
EXTT9=
EXTT10=
EXTT11=
EXTT12=
EXTT13=
PLAYORDER=
